solid 1
 facet normal        0        1       -0
  outer loop
   vertex      -30      200       55
   vertex     -115      200      115
   vertex      -30      200      115
  endloop
 endfacet
 facet normal        0        1        0
  outer loop
   vertex      -30      200       55
   vertex      -55      200       30
   vertex     -115      200      115
  endloop
 endfacet
 facet normal        0        1        0
  outer loop
   vertex     -115      200       30
   vertex     -115      200      115
   vertex      -55      200       30
  endloop
 endfacet
 facet normal        0        1        0
  outer loop
   vertex       30      200       55
   vertex      -55      200       30
   vertex      -30      200       55
  endloop
 endfacet
 facet normal        0        1        0
  outer loop
   vertex       30      200       55
   vertex       30      200      115
   vertex      115      200      115
  endloop
 endfacet
 facet normal        0        1        0
  outer loop
   vertex      115      200      115
   vertex      115      200       30
   vertex       55      200       30
  endloop
 endfacet
 facet normal        0        1        0
  outer loop
   vertex       30      200       55
   vertex       55      200       30
   vertex       55      200      -30
  endloop
 endfacet
 facet normal       -0        1        0
  outer loop
   vertex       30      200       55
   vertex      115      200      115
   vertex       55      200       30
  endloop
 endfacet
 facet normal       -0        1        0
  outer loop
   vertex      -55      200       30
   vertex       30      200       55
   vertex       55      200      -30
  endloop
 endfacet
 facet normal       -0        1        0
  outer loop
   vertex      -55      200      -30
   vertex      -55      200       30
   vertex      -30      200      -55
  endloop
 endfacet
 facet normal        0        1        0
  outer loop
   vertex     -115      200     -115
   vertex     -115      200      -30
   vertex      -55      200      -30
  endloop
 endfacet
 facet normal        0        1       -0
  outer loop
   vertex      -30      200     -115
   vertex     -115      200     -115
   vertex      -30      200      -55
  endloop
 endfacet
 facet normal        0        1        0
  outer loop
   vertex      -55      200      -30
   vertex      -30      200      -55
   vertex     -115      200     -115
  endloop
 endfacet
 facet normal        0        1        0
  outer loop
   vertex      -55      200       30
   vertex       55      200      -30
   vertex      -30      200      -55
  endloop
 endfacet
 facet normal        0        1       -0
  outer loop
   vertex      115      200     -115
   vertex       55      200      -30
   vertex      115      200      -30
  endloop
 endfacet
 facet normal        0        1        0
  outer loop
   vertex      115      200     -115
   vertex       30      200     -115
   vertex       30      200      -55
  endloop
 endfacet
 facet normal        0        1        0
  outer loop
   vertex       55      200      -30
   vertex      115      200     -115
   vertex       30      200      -55
  endloop
 endfacet
 facet normal        0        1       -0
  outer loop
   vertex       30      200      -55
   vertex      -30      200      -55
   vertex       55      200      -30
  endloop
 endfacet
 facet normal        1        0       -0
  outer loop
   vertex      115      200     -115
   vertex      115      200      -30
   vertex      115        0     -115
  endloop
 endfacet
 facet normal        1        0        0
  outer loop
   vertex      115   200.01      -24
   vertex      115        0     -115
   vertex      115      200      -30
  endloop
 endfacet
 facet normal        1        0        0
  outer loop
   vertex      115      200      -30
   vertex      115   200.01      -30
   vertex      115   200.01      -24
  endloop
 endfacet
 facet normal        1        0        0
  outer loop
   vertex      115   200.02       24
   vertex      115   200.01       24
   vertex      115   200.01      -24
  endloop
 endfacet
 facet normal        1        0       -0
  outer loop
   vertex      115   200.01      -24
   vertex      115   200.01       24
   vertex      115        0     -115
  endloop
 endfacet
 facet normal        1        0        0
  outer loop
   vertex      115      200      115
   vertex      115        0      115
   vertex      115      200       30
  endloop
 endfacet
 facet normal        1        0        0
  outer loop
   vertex      115   200.01       24
   vertex      115      200       30
   vertex      115        0      115
  endloop
 endfacet
 facet normal        1       -0        0
  outer loop
   vertex      115      200       30
   vertex      115   200.01       24
   vertex      115   200.01       30
  endloop
 endfacet
 facet normal        1        0        0
  outer loop
   vertex      115   200.01      -24
   vertex      115   200.02      -24
   vertex      115   200.02       24
  endloop
 endfacet
 facet normal        1        0        0
  outer loop
   vertex      115        0     -115
   vertex      115   200.01       24
   vertex      115        0      115
  endloop
 endfacet
 facet normal        0        0       -1
  outer loop
   vertex     -115      200     -115
   vertex      -30      200     -115
   vertex     -115        0     -115
  endloop
 endfacet
 facet normal        0        0       -1
  outer loop
   vertex      -24   200.01     -115
   vertex     -115        0     -115
   vertex      -30      200     -115
  endloop
 endfacet
 facet normal        0        0       -1
  outer loop
   vertex      -30      200     -115
   vertex      -30   200.01     -115
   vertex      -24   200.01     -115
  endloop
 endfacet
 facet normal        0       -0       -1
  outer loop
   vertex       24   200.02     -115
   vertex       24   200.01     -115
   vertex      -24   200.01     -115
  endloop
 endfacet
 facet normal        0       -0       -1
  outer loop
   vertex      -24   200.01     -115
   vertex       24   200.01     -115
   vertex     -115        0     -115
  endloop
 endfacet
 facet normal       -0       -0       -1
  outer loop
   vertex      115      200     -115
   vertex      115        0     -115
   vertex       30      200     -115
  endloop
 endfacet
 facet normal        0        0       -1
  outer loop
   vertex       24   200.01     -115
   vertex       30      200     -115
   vertex      115        0     -115
  endloop
 endfacet
 facet normal        0        0       -1
  outer loop
   vertex       30      200     -115
   vertex       24   200.01     -115
   vertex       30   200.01     -115
  endloop
 endfacet
 facet normal        0        0       -1
  outer loop
   vertex      -24   200.01     -115
   vertex      -24   200.02     -115
   vertex       24   200.02     -115
  endloop
 endfacet
 facet normal        0        0       -1
  outer loop
   vertex     -115        0     -115
   vertex       24   200.01     -115
   vertex      115        0     -115
  endloop
 endfacet
 facet normal       -1       -0       -0
  outer loop
   vertex     -115      200      115
   vertex     -115      200       30
   vertex     -115        0      115
  endloop
 endfacet
 facet normal       -1        0        0
  outer loop
   vertex     -115   200.01       24
   vertex     -115        0      115
   vertex     -115      200       30
  endloop
 endfacet
 facet normal       -1        0        0
  outer loop
   vertex     -115      200       30
   vertex     -115   200.01       30
   vertex     -115   200.01       24
  endloop
 endfacet
 facet normal       -1        0        0
  outer loop
   vertex     -115   200.02      -24
   vertex     -115   200.01      -24
   vertex     -115   200.01       24
  endloop
 endfacet
 facet normal       -1       -0       -0
  outer loop
   vertex     -115   200.01       24
   vertex     -115   200.01      -24
   vertex     -115        0      115
  endloop
 endfacet
 facet normal       -1        0        0
  outer loop
   vertex     -115      200     -115
   vertex     -115        0     -115
   vertex     -115      200      -30
  endloop
 endfacet
 facet normal       -1        0        0
  outer loop
   vertex     -115   200.01      -24
   vertex     -115      200      -30
   vertex     -115        0     -115
  endloop
 endfacet
 facet normal       -1        0        0
  outer loop
   vertex     -115      200      -30
   vertex     -115   200.01      -24
   vertex     -115   200.01      -30
  endloop
 endfacet
 facet normal       -1        0        0
  outer loop
   vertex     -115   200.01       24
   vertex     -115   200.02       24
   vertex     -115   200.02      -24
  endloop
 endfacet
 facet normal       -1        0        0
  outer loop
   vertex     -115        0      115
   vertex     -115   200.01      -24
   vertex     -115        0     -115
  endloop
 endfacet
 facet normal        0        0        1
  outer loop
   vertex      115      200      115
   vertex       30      200      115
   vertex      115        0      115
  endloop
 endfacet
 facet normal        0        0        1
  outer loop
   vertex       24   200.01      115
   vertex      115        0      115
   vertex       30      200      115
  endloop
 endfacet
 facet normal        0       -0        1
  outer loop
   vertex       30      200      115
   vertex       30   200.01      115
   vertex       24   200.01      115
  endloop
 endfacet
 facet normal       -0        0        1
  outer loop
   vertex      -24   200.02      115
   vertex       24   200.01      115
   vertex       24   200.02      115
  endloop
 endfacet
 facet normal        0        0        1
  outer loop
   vertex       24   200.01      115
   vertex      -24   200.01      115
   vertex      115        0      115
  endloop
 endfacet
 facet normal       -0        0        1
  outer loop
   vertex     -115      200      115
   vertex     -115        0      115
   vertex      -30      200      115
  endloop
 endfacet
 facet normal        0        0        1
  outer loop
   vertex      -24   200.01      115
   vertex      -30      200      115
   vertex     -115        0      115
  endloop
 endfacet
 facet normal        0        0        1
  outer loop
   vertex      -30      200      115
   vertex      -24   200.01      115
   vertex      -30   200.01      115
  endloop
 endfacet
 facet normal        0        0        1
  outer loop
   vertex       24   200.01      115
   vertex      -24   200.02      115
   vertex      -24   200.01      115
  endloop
 endfacet
 facet normal        0        0        1
  outer loop
   vertex      115        0      115
   vertex      -24   200.01      115
   vertex     -115        0      115
  endloop
 endfacet
 facet normal        0       -1        0
  outer loop
   vertex     -115        0      115
   vertex     -115        0     -115
   vertex      115        0     -115
  endloop
 endfacet
 facet normal        0       -1        0
  outer loop
   vertex      115        0     -115
   vertex      115        0      115
   vertex     -115        0      115
  endloop
 endfacet
 facet normal        1        0        0
  outer loop
   vertex       30   200.01      -55
   vertex       30      200      -55
   vertex       30      200     -115
  endloop
 endfacet
 facet normal        1        0        0
  outer loop
   vertex       30      200     -115
   vertex       30   200.01     -115
   vertex       30   200.01      -55
  endloop
 endfacet
 facet normal       -1        0        0
  outer loop
   vertex      -30   200.01     -115
   vertex      -30      200     -115
   vertex      -30      200      -55
  endloop
 endfacet
 facet normal       -1        0        0
  outer loop
   vertex      -30      200      -55
   vertex      -30   200.01      -55
   vertex      -30   200.01     -115
  endloop
 endfacet
 facet normal        0        0        1
  outer loop
   vertex      -30   200.01      -55
   vertex      -30      200      -55
   vertex       30      200      -55
  endloop
 endfacet
 facet normal        0       -0        1
  outer loop
   vertex       30      200      -55
   vertex       30   200.01      -55
   vertex      -30   200.01      -55
  endloop
 endfacet
 facet normal        0        1       -0
  outer loop
   vertex      -24   200.01     -115
   vertex      -30   200.01     -115
   vertex      -24   200.01      -67
  endloop
 endfacet
 facet normal        0        1        0
  outer loop
   vertex       30   200.01     -115
   vertex       24   200.01     -115
   vertex       24   200.01      -67
  endloop
 endfacet
 facet normal        0        1       -0
  outer loop
   vertex      -24   200.01      -67
   vertex      -30   200.01      -55
   vertex       24   200.01      -67
  endloop
 endfacet
 facet normal        0        1        0
  outer loop
   vertex      -30   200.01      -55
   vertex      -24   200.01      -67
   vertex      -30   200.01     -115
  endloop
 endfacet
 facet normal       -0        1        0
  outer loop
   vertex       24   200.01      -67
   vertex       30   200.01      -55
   vertex       30   200.01     -115
  endloop
 endfacet
 facet normal        0        1        0
  outer loop
   vertex       30   200.01      -55
   vertex       24   200.01      -67
   vertex      -30   200.01      -55
  endloop
 endfacet
 facet normal        0        0        1
  outer loop
   vertex       55      200       30
   vertex      115      200       30
   vertex      115   200.01       30
  endloop
 endfacet
 facet normal        0        0        1
  outer loop
   vertex      115   200.01       30
   vertex       55   200.01       30
   vertex       55      200       30
  endloop
 endfacet
 facet normal        0       -0       -1
  outer loop
   vertex      115   200.01      -30
   vertex      115      200      -30
   vertex       55      200      -30
  endloop
 endfacet
 facet normal        0        0       -1
  outer loop
   vertex       55      200      -30
   vertex       55   200.01      -30
   vertex      115   200.01      -30
  endloop
 endfacet
 facet normal       -1        0        0
  outer loop
   vertex       55   200.01      -30
   vertex       55      200      -30
   vertex       55      200       30
  endloop
 endfacet
 facet normal       -1        0        0
  outer loop
   vertex       55      200       30
   vertex       55   200.01       30
   vertex       55   200.01      -30
  endloop
 endfacet
 facet normal        0        1        0
  outer loop
   vertex       55   200.01      -30
   vertex       67   200.01      -24
   vertex      115   200.01      -30
  endloop
 endfacet
 facet normal        0        1       -0
  outer loop
   vertex       67   200.01      -24
   vertex       55   200.01      -30
   vertex       67   200.01       24
  endloop
 endfacet
 facet normal        0        1        0
  outer loop
   vertex      115   200.01      -24
   vertex      115   200.01      -30
   vertex       67   200.01      -24
  endloop
 endfacet
 facet normal        0        1       -0
  outer loop
   vertex       67   200.01       24
   vertex       55   200.01       30
   vertex      115   200.01       30
  endloop
 endfacet
 facet normal        0        1        0
  outer loop
   vertex       55   200.01       30
   vertex       67   200.01       24
   vertex       55   200.01      -30
  endloop
 endfacet
 facet normal        0        1        0
  outer loop
   vertex      115   200.01       30
   vertex      115   200.01       24
   vertex       67   200.01       24
  endloop
 endfacet
 facet normal       -1        0        0
  outer loop
   vertex      -30   200.01       55
   vertex      -30      200       55
   vertex      -30      200      115
  endloop
 endfacet
 facet normal       -1        0        0
  outer loop
   vertex      -30      200      115
   vertex      -30   200.01      115
   vertex      -30   200.01       55
  endloop
 endfacet
 facet normal        1        0        0
  outer loop
   vertex       30   200.01      115
   vertex       30      200      115
   vertex       30      200       55
  endloop
 endfacet
 facet normal        1        0        0
  outer loop
   vertex       30      200       55
   vertex       30   200.01       55
   vertex       30   200.01      115
  endloop
 endfacet
 facet normal        0       -0       -1
  outer loop
   vertex       30   200.01       55
   vertex       30      200       55
   vertex      -30      200       55
  endloop
 endfacet
 facet normal        0        0       -1
  outer loop
   vertex      -30      200       55
   vertex      -30   200.01       55
   vertex       30   200.01       55
  endloop
 endfacet
 facet normal        0        1        0
  outer loop
   vertex      -30   200.01       55
   vertex      -24   200.01       67
   vertex       30   200.01       55
  endloop
 endfacet
 facet normal        0        1        0
  outer loop
   vertex      -24   200.01       67
   vertex      -30   200.01       55
   vertex      -30   200.01      115
  endloop
 endfacet
 facet normal        0        1       -0
  outer loop
   vertex       30   200.01       55
   vertex       24   200.01       67
   vertex       30   200.01      115
  endloop
 endfacet
 facet normal        0        1        0
  outer loop
   vertex       24   200.01       67
   vertex       30   200.01       55
   vertex      -24   200.01       67
  endloop
 endfacet
 facet normal       -0        1        0
  outer loop
   vertex      -30   200.01      115
   vertex      -24   200.01      115
   vertex      -24   200.01       67
  endloop
 endfacet
 facet normal       -0        1        0
  outer loop
   vertex       24   200.01      115
   vertex       30   200.01      115
   vertex       24   200.01       67
  endloop
 endfacet
 facet normal       -0        0       -1
  outer loop
   vertex      -55   200.01      -30
   vertex     -115      200      -30
   vertex     -115   200.01      -30
  endloop
 endfacet
 facet normal        0        0       -1
  outer loop
   vertex     -115      200      -30
   vertex      -55   200.01      -30
   vertex      -55      200      -30
  endloop
 endfacet
 facet normal        0        0        1
  outer loop
   vertex     -115   200.01       30
   vertex     -115      200       30
   vertex      -55      200       30
  endloop
 endfacet
 facet normal        0       -0        1
  outer loop
   vertex      -55      200       30
   vertex      -55   200.01       30
   vertex     -115   200.01       30
  endloop
 endfacet
 facet normal        1        0        0
  outer loop
   vertex      -55   200.01       30
   vertex      -55      200       30
   vertex      -55      200      -30
  endloop
 endfacet
 facet normal        1        0        0
  outer loop
   vertex      -55      200      -30
   vertex      -55   200.01      -30
   vertex      -55   200.01       30
  endloop
 endfacet
 facet normal        0        1        0
  outer loop
   vertex     -115   200.01      -30
   vertex     -115   200.01      -24
   vertex      -67   200.01      -24
  endloop
 endfacet
 facet normal        0        1       -0
  outer loop
   vertex      -55   200.01      -30
   vertex      -67   200.01      -24
   vertex      -55   200.01       30
  endloop
 endfacet
 facet normal        0        1        0
  outer loop
   vertex      -67   200.01      -24
   vertex      -55   200.01      -30
   vertex     -115   200.01      -30
  endloop
 endfacet
 facet normal        0        1        0
  outer loop
   vertex     -115   200.01       24
   vertex     -115   200.01       30
   vertex      -67   200.01       24
  endloop
 endfacet
 facet normal       -0        1        0
  outer loop
   vertex      -67   200.01       24
   vertex      -55   200.01       30
   vertex      -67   200.01      -24
  endloop
 endfacet
 facet normal        0        1        0
  outer loop
   vertex      -55   200.01       30
   vertex      -67   200.01       24
   vertex     -115   200.01       30
  endloop
 endfacet
 facet normal       -1        0        0
  outer loop
   vertex      -24   200.02     -115
   vertex      -24   200.01     -115
   vertex      -24   200.01      -67
  endloop
 endfacet
 facet normal       -1        0        0
  outer loop
   vertex      -24   200.01      -67
   vertex      -24   200.02      -67
   vertex      -24   200.02     -115
  endloop
 endfacet
 facet normal        0        0        1
  outer loop
   vertex      -24   200.02      -67
   vertex      -24   200.01      -67
   vertex       24   200.01      -67
  endloop
 endfacet
 facet normal        0       -0        1
  outer loop
   vertex       24   200.01      -67
   vertex       24   200.02      -67
   vertex      -24   200.02      -67
  endloop
 endfacet
 facet normal        1        0        0
  outer loop
   vertex       24   200.02      -67
   vertex       24   200.01      -67
   vertex       24   200.01     -115
  endloop
 endfacet
 facet normal        1        0        0
  outer loop
   vertex       24   200.01     -115
   vertex       24   200.02     -115
   vertex       24   200.02      -67
  endloop
 endfacet
 facet normal        0        1        0
  outer loop
   vertex       24   200.02     -115
   vertex      -24   200.02     -115
   vertex      -24   200.02      -67
  endloop
 endfacet
 facet normal       -0        1        0
  outer loop
   vertex      -24   200.02      -67
   vertex       24   200.02      -67
   vertex       24   200.02     -115
  endloop
 endfacet
 facet normal        0        0       -1
  outer loop
   vertex      115   200.01      -24
   vertex       67   200.01      -24
   vertex       67   200.02      -24
  endloop
 endfacet
 facet normal        0        0       -1
  outer loop
   vertex       67   200.02      -24
   vertex      115   200.02      -24
   vertex      115   200.01      -24
  endloop
 endfacet
 facet normal       -1        0        0
  outer loop
   vertex       67   200.02      -24
   vertex       67   200.01      -24
   vertex       67   200.01       24
  endloop
 endfacet
 facet normal       -1        0        0
  outer loop
   vertex       67   200.01       24
   vertex       67   200.02       24
   vertex       67   200.02      -24
  endloop
 endfacet
 facet normal       -0        0        1
  outer loop
   vertex       67   200.02       24
   vertex      115   200.01       24
   vertex      115   200.02       24
  endloop
 endfacet
 facet normal        0        0        1
  outer loop
   vertex      115   200.01       24
   vertex       67   200.02       24
   vertex       67   200.01       24
  endloop
 endfacet
 facet normal        0        1       -0
  outer loop
   vertex      115   200.02      -24
   vertex       67   200.02      -24
   vertex      115   200.02       24
  endloop
 endfacet
 facet normal       -0        1        0
  outer loop
   vertex       67   200.02       24
   vertex      115   200.02       24
   vertex       67   200.02      -24
  endloop
 endfacet
 facet normal        1        0        0
  outer loop
   vertex       24   200.02      115
   vertex       24   200.01       67
   vertex       24   200.02       67
  endloop
 endfacet
 facet normal        1        0        0
  outer loop
   vertex       24   200.01       67
   vertex       24   200.02      115
   vertex       24   200.01      115
  endloop
 endfacet
 facet normal        0       -0       -1
  outer loop
   vertex       24   200.02       67
   vertex       24   200.01       67
   vertex      -24   200.01       67
  endloop
 endfacet
 facet normal        0        0       -1
  outer loop
   vertex      -24   200.01       67
   vertex      -24   200.02       67
   vertex       24   200.02       67
  endloop
 endfacet
 facet normal       -1        0        0
  outer loop
   vertex      -24   200.01       67
   vertex      -24   200.01      115
   vertex      -24   200.02      115
  endloop
 endfacet
 facet normal       -1        0       -0
  outer loop
   vertex      -24   200.02      115
   vertex      -24   200.02       67
   vertex      -24   200.01       67
  endloop
 endfacet
 facet normal        0        1        0
  outer loop
   vertex       24   200.02       67
   vertex      -24   200.02       67
   vertex      -24   200.02      115
  endloop
 endfacet
 facet normal       -0        1        0
  outer loop
   vertex      -24   200.02      115
   vertex       24   200.02      115
   vertex       24   200.02       67
  endloop
 endfacet
 facet normal       -0        0        1
  outer loop
   vertex     -115   200.02       24
   vertex      -67   200.01       24
   vertex      -67   200.02       24
  endloop
 endfacet
 facet normal        0        0        1
  outer loop
   vertex      -67   200.01       24
   vertex     -115   200.02       24
   vertex     -115   200.01       24
  endloop
 endfacet
 facet normal        1        0        0
  outer loop
   vertex      -67   200.02       24
   vertex      -67   200.01       24
   vertex      -67   200.01      -24
  endloop
 endfacet
 facet normal        1        0        0
  outer loop
   vertex      -67   200.01      -24
   vertex      -67   200.02      -24
   vertex      -67   200.02       24
  endloop
 endfacet
 facet normal        0        0       -1
  outer loop
   vertex      -67   200.01      -24
   vertex     -115   200.01      -24
   vertex     -115   200.02      -24
  endloop
 endfacet
 facet normal        0        0       -1
  outer loop
   vertex     -115   200.02      -24
   vertex      -67   200.02      -24
   vertex      -67   200.01      -24
  endloop
 endfacet
 facet normal        0        1       -0
  outer loop
   vertex      -67   200.02      -24
   vertex     -115   200.02      -24
   vertex      -67   200.02       24
  endloop
 endfacet
 facet normal       -0        1        0
  outer loop
   vertex     -115   200.02       24
   vertex      -67   200.02       24
   vertex     -115   200.02      -24
  endloop
 endfacet
endsolid 1 written by HOOPS Exchange
