solid 1
 facet normal        0        0        1
  outer loop
   vertex        0      345        0
   vertex        0        0        0
   vertex       17        0        0
  endloop
 endfacet
 facet normal        0       -0        1
  outer loop
   vertex       17        0        0
   vertex       17      345        0
   vertex        0      345        0
  endloop
 endfacet
 facet normal        1        0        0
  outer loop
   vertex       17      345        0
   vertex       17        0        0
   vertex       17        0     -343
  endloop
 endfacet
 facet normal        1        0        0
  outer loop
   vertex       17        0     -343
   vertex       17      345     -343
   vertex       17      345        0
  endloop
 endfacet
 facet normal        0        0        1
  outer loop
   vertex       17      345     -343
   vertex       17        0     -343
   vertex      363        0     -343
  endloop
 endfacet
 facet normal        0       -0        1
  outer loop
   vertex      363        0     -343
   vertex      363      345     -343
   vertex       17      345     -343
  endloop
 endfacet
 facet normal       -1        0        0
  outer loop
   vertex      363      345     -343
   vertex      363        0     -343
   vertex      363        0        0
  endloop
 endfacet
 facet normal       -1        0        0
  outer loop
   vertex      363        0        0
   vertex      363      345        0
   vertex      363      345     -343
  endloop
 endfacet
 facet normal        0        0        1
  outer loop
   vertex      363      345        0
   vertex      363        0        0
   vertex      380        0        0
  endloop
 endfacet
 facet normal        0       -0        1
  outer loop
   vertex      380        0        0
   vertex      380      345        0
   vertex      363      345        0
  endloop
 endfacet
 facet normal        1        0        0
  outer loop
   vertex      380      345        0
   vertex      380        0        0
   vertex      380        0     -360
  endloop
 endfacet
 facet normal        1        0        0
  outer loop
   vertex      380        0     -360
   vertex      380      345     -360
   vertex      380      345        0
  endloop
 endfacet
 facet normal        0       -0       -1
  outer loop
   vertex      380      345     -360
   vertex      380        0     -360
   vertex        0        0     -360
  endloop
 endfacet
 facet normal        0        0       -1
  outer loop
   vertex        0        0     -360
   vertex        0      345     -360
   vertex      380      345     -360
  endloop
 endfacet
 facet normal       -1        0        0
  outer loop
   vertex        0      345     -360
   vertex        0        0     -360
   vertex        0        0        0
  endloop
 endfacet
 facet normal       -1        0        0
  outer loop
   vertex        0        0        0
   vertex        0      345        0
   vertex        0      345     -360
  endloop
 endfacet
 facet normal        0        1        0
  outer loop
   vertex        0      345     -360
   vertex       17      345     -343
   vertex      363      345     -343
  endloop
 endfacet
 facet normal        0        1        0
  outer loop
   vertex       17      345     -343
   vertex        0      345     -360
   vertex        0      345        0
  endloop
 endfacet
 facet normal        0        1       -0
  outer loop
   vertex      380      345     -360
   vertex      363      345     -343
   vertex      380      345        0
  endloop
 endfacet
 facet normal        0        1        0
  outer loop
   vertex      363      345     -343
   vertex      380      345     -360
   vertex        0      345     -360
  endloop
 endfacet
 facet normal       -0        1        0
  outer loop
   vertex        0      345        0
   vertex       17      345        0
   vertex       17      345     -343
  endloop
 endfacet
 facet normal       -0        1        0
  outer loop
   vertex      363      345        0
   vertex      380      345        0
   vertex      363      345     -343
  endloop
 endfacet
 facet normal       -0       -1        0
  outer loop
   vertex      363        0     -343
   vertex       17        0     -343
   vertex        0        0     -360
  endloop
 endfacet
 facet normal        0       -1        0
  outer loop
   vertex        0        0        0
   vertex        0        0     -360
   vertex       17        0     -343
  endloop
 endfacet
 facet normal        0       -1       -0
  outer loop
   vertex      380        0        0
   vertex      363        0     -343
   vertex      380        0     -360
  endloop
 endfacet
 facet normal        0       -1        0
  outer loop
   vertex        0        0     -360
   vertex      380        0     -360
   vertex      363        0     -343
  endloop
 endfacet
 facet normal        0       -1        0
  outer loop
   vertex       17        0     -343
   vertex       17        0        0
   vertex        0        0        0
  endloop
 endfacet
 facet normal        0       -1        0
  outer loop
   vertex      363        0     -343
   vertex      380        0        0
   vertex      363        0        0
  endloop
 endfacet
endsolid 1 written by HOOPS Exchange
